<svg width="720" height="1280" viewBox="0 0 720 1280" xmlns="http://www.w3.org/2000/svg">
  <style>
    .sig-stroke {
      stroke: #1a1a1a;
      stroke-width: 2.5;
      fill: none;
      stroke-linecap: round;
      stroke-linejoin: round;
    }
  </style>
  <path class="sig-stroke" d="M 64,1068 L144,1053 L197,1001 L272,942 L348,864 L377,840 L333,851 L291,868 L235,908 L236,943 L153,1035 L181,1016 L209,995 L220,982 L221,994 L202,1000 L242,973 L257,976 L199,1007 L184,1000 L206,977 L217,970 L158,999 L248,964 L270,948 L261,953 L286,966 L303,947 L343,932 L302,952 L350,941 L357,919 L305,954 L339,937 L304,953 L295,941 L294,942 L294,941 L298,944 L345,956 L390,929 L357,947 L349,952 L415,910 L377,906 L302,928 L378,911 L427,899 L391,923 L365,965 L397,940 L417,913 L329,955 L293,962 L367,941 L411,907 L400,941 L414,970 L413,970 L413,953 L412,935 L435,971 L408,956 L382,945 L362,952 L321,962 L261,1011 L297,1004 L273,994 L320,970 L411,974 L346,1046 L296,1018 L272,999 L304,986 L262,1016 L234,1002 L208,992 L220,973 L294,949 L236,1018 L268,986 L289,961 L375,916 L349,975 L321,999 L318,969 L407,969 L401,1024 L369,1058 L416,1012 L432,975 L446,1057 L351,1036 L380,1013 L399,1005 L447,1022 L405,1057 L355,1041 L358,1039 L302,1021 L244,1033 L239,973 L260,915 L313,919 L270,942 L373,955 L334,975 L368,956 L314,990 L318,984 L288,965 L285,961 L287,958 L248,972 L241,949 L289,907 L332,901 L258,941 L296,938 L407,938 L394,947 L408,976 L381,993 L376,998 L365,993 L266,996 L221,1011 L220,1004 L224,1003 L187,1005 L213,993 L272,951 L231,975 L280,972 L368,947 L324,949 L258,994 L337,980 L337,976 L241,985 L276,994 L289,977 L235,986 L242,1006 L298,965 L234,986 L193,1011 L286,980 L292,972 L258,986 L301,964 L292,974 L288,954 L231,993 L278,987 L234,985 L236,985 L205,997 L299,992 L345,963 L287,984 L292,1004 L348,964 L295,970 L297,969 L306,961 L355,953 L319,943 L297,968 L292,969 L328,979 L329,974 L250,994 L329,979 L331,974 L242,984 L277,993 L292,976 L243,984 L277,993 L300,968 L300,968 L300,967 L313,955 L343,943 L308,959 L357,951 L320,941 L310,953 L340,942 L305,958 L352,951 L317,942 L309,955 L339,944 L297,968 L297,969 L296,969 L290,977 L242,984 L235,1009 L299,966 L234,989 L189,1017 L287,998 L266,989 L248,996 L238,1004 L350,986 L381,973 L347,973 L295,1005 L388,974 L344,968 L300,968 L298,968 L298,968 L293,970 L329,978 L328,972 L248,992 L328,976 L392,981 L288,1003 L325,1010 L401,1002 L330,1030 L332,1053 L331,994 L329,1028 L332,1052 L330,993 L387,1011 L352,1028 L330,994 L387,1012 L303,1035 L290,1021 L345,980 L327,1039 L250,1047 L273,1025 L351,1008 L292,1036 L274,1060 L274,1034 L355,1013 L358,1035 L337,1107 L286,1103 L343,1118 L301,1120 L339,1127 L336,1090 L340,1092 L294,1093 L350,1109 L300,1120 L339,1127 L335,1090 L334,1091 L286,1094 L341,1109 L283,1130 L294,1141 L280,1068 L365,1063 L292,1038 L383,1004 L399,1020 L377,1081 L361,1099 L370,1089 L404,1071 L383,1105 L442,1093 L399,1072 L435,1023 L407,1031 L459,1088 L514,1049 L428,1026 L455,1021 L493,1027 L462,991 L410,1014 L410,1023 L439,1026 L408,1034 L447,1042 L445,1004 L449,1007 L450,1004 L459,984 L414,1011 L470,1081 L466,1060 L480,1034 L428,1018 L489,1092 L419,1061 L394,1012 L376,1007 L295,1031 L287,1020 L286,964 L285,998 L231,1039 L323,1008 L378,1019 L341,1067 L324,1059 L385,1011 L441,1055 L437,1086 L414,1024 L425,1006 L343,1028 L365,1002 L273,979 L224,984 L262,996 L274,978 L229,984 L265,996 L278,980 L266,988 L269,991 L291,995 L255,992 L268,967 L271,986 L222,1009 L253,1005 L279,972 L247,968 L232,977 L277,907 L255,921 L262,945 L251,987 L320,921 L262,959 L294,961 L270,921 L226,930 L183,953 L259,975 L266,964 L266,964 L271,957 L321,950 L292,934 L297,890 L234,938 L251,970 L298,964 L262,955 L276,929 L342,973 L368,968 L366,971 L336,971 L336,971 L305,967 L282,965 L350,961 L315,964 L303,965 L302,965 L302,965 L303,964 L272,962 L278,951 L292,925 L283,969 L359,965 L374,963 L366,972 L366,972 L350,972 L347,970 L329,976 L329,958 L372,920 L366,984 L346,979 L316,976 L357,949 L357,944 L346,985 L332,981 L306,958 L352,943 L348,1007 L326,1000 L331,994 L377,971 L371,994 L332,988 L367,986 L338,982 L368,970 L370,993 L346,988 L396,989 L329,969 L373,930 L370,997 L346,991 L367,985 L360,956 L334,948 L304,986 L339,980 L268,955 L312,916 L335,994 L321,986 L293,967 L353,914 L289,970 L279,1015 L245,995 L290,981 L293,946 L314,989 L370,976 L435,995 L432,952 L419,959 L484,1002 L463,991 L413,941 L457,907 L483,960 L433,992 L422,942 L418,925 L415,1002 L403,1001 L389,955 L394,909 L378,990 L416,985 L374,929 L375,942 L351,1008 L390,977 L331,935 L362,998 L371,990 L350,912 L400,960 L370,990 L384,902 L359,924 L378,996 L333,998 L360,923 L290,1011 L338,1053 L311,1040 L337,973 L323,996 L403,1028 L447,976 L416,907 L459,947 L480,1027 L454,972 L419,923 L472,983 L463,1027 L421,964 L391,964 L426,1032 L383,986 L362,905 L385,960 L377,1021 L359,996 L378,928 L354,959 L386,995 L303,979 L326,937 L359,921 L314,1010 L291,987 L280,975 L316,943 L317,939 L347,984 L342,974 L337,962 L369,940 L369,934 L325,989 L281,1000 L320,1006 L334,1016 L300,1023 L337,987 L351,1003 L345,1035 L418,1061 L460,1057 L416,1109 L368,1087 L387,996 L400,994 L369,983 L406,988 L409,1002 L375,1010 L364,982 L371,999 L338,1015 L371,1020 L373,1034 L378,1076 L386,1071 L403,983 L439,1009 L483,1014 L454,1043 L445,1035 L397,1089 L384,1100 L350,1043 L376,969 L443,986 L429,1001 L437,1011 L396,1018 L348,1072 L347,1096 L338,1027 L385,986 L380,996 L393,994 L450,1000 L384,1031 L401,1061 L393,983 L433,1008 L407,1002 L431,998 L427,946 L412,972 L385,1003 L360,997 L410,993 L392,972 L374,1004 L380,984 L330,983 L429,948 L428,947 L428,947 L417,967 L415,964 L390,992 L345,1004 L345,1004 L340,1005 L304,1013 L288,1038 L318,1051 L269,1095 L271,1150 L334,1061 L333,1011 L300,1023 L290,1038 L300,1052 L286,1082 L287,1089 L316,1033 L298,1039 L320,1035 L345,1060 L323,1101 L324,1108 L342,1049 L332,1052 L312,1047 L348,1029 L333,1012 L304,1042 L332,1037 L332,1037 L332,1037 L331,1037 L331,1036 L329,1036 L350,1038 L383,1041 L417,1045 L372,1096 L415,1090 L415,1002 L432,1006 L409,1023 L408,1024 L442,1028 L396,1081 L440,1072 L409,992 L360,1003 L388,1022 L379,1037 L362,1050 L355,1102 L382,1136 L384,1104 L378,1034 L372,985 L389,1011 L331,1032 L379,1034 L364,1075 L362,1130 L417,1045 L373,1001 L388,1011 L331,1033 L378,1035 L364,1076 L376,1101 L431,1010 L362,1024 L395,1025 L356,1039 L368,1038 L381,1057 L410,1025 L359,1028 L397,1026 L358,1039 L378,1031 L369,1091 L398,1065 L373,1009 L392,1017 L366,1037 L356,1050 L335,1080 L337,1146 L391,1109 L389,1035 L381,989 L381,1004 L361,1026 L410,1030 L408,1062 L367,1121 L384,1058 L410,976 L399,996 L381,1023 L391,1019 L395,1030 L406,1050 L440,1014 L421,1026 L404,1028 L383,1031 L394,1031 L405,1051 L440,1015 L373,1022 L390,1038 L349,1050 L353,1041 L355,1102 L396,1094 L403,1003 L424,1012 L404,1030 L383,1032 L394,1032 L405,1052 L440,1016 L423,1020 L404,1030 L360,1041 L401,1034 L393,1095 L427,1065 L384,1013 L422,1028 L382,1038 L391,1034 L381,1075 L393,1102 L400,1010 L420,1019 L405,1031 L360,1041 L363,1032 L366,1093 L412,1083 L403,995 L425,1013 L405,1031 L384,1034 L395,1034 L407,1054 L441,1018 L425,1021 L406,1032 L386,1035 L396,1035 L408,1055 L443,1019 L427,1022 L408,1033 L387,1036 L397,1036 L410,1056 L444,1019 L428,1023 L409,1033 L409,1033 L409,1033 L409,1033 L409,1033 L409,1033 L409,1033 L409,1032 L409,1032 L409,1032 L409,1032 L409,1031 L409,1030 L409,1030 L408,1030 L408,1030 L408,1030 L408,1030 L408,1030 L408,1030 L408,1030 L409,1030 L409,1029 L371,1027 L381,1027 L393,1047 L427,1011 L409,1021 L429,1020 L397,1027 L418,986 L418,979 L447,1034 L427,1027 L428,1027 L428,1027 L428,1027 L428,1027 L428,1027 L428,1027 L428,1027 L428,1027 L428,1027 L428,1027 L428,1027 L428,1027 L428,1027 L428,1027 L428,1027 L428,1027 L428,1028 L428,1028 L429,1028 L429,1028 L429,1028 L429,1028 L429,1028 L429,1028 L429,1028 L429,1028 L430,1028 L430,1028 L430,1028 L430,1028 L430,1028 L430,1029 L412,1031 L392,1034 L401,1034 L414,1054 L448,1018 L430,1029 L412,1032 L392,1035 L402,1035 L415,1054 L448,1018 L433,1022 L432,1023 L401,1029 L394,1015 L394,1015 L394,1015 L394,1015 L394,1015 L394,1015 L394,1015 L394,1015 L394,1016 L395,1016 L395,1016 L395,1016 L395,1016 L395,1016 L395,1016 L396,1017 L396,1017 L396,1017 L396,1017 L396,1018 L395,1024 L428,1017 L387,1021 L401,1040 L435,1004 L419,1009 L380,1030 L393,1028 L410,1041 L397,1087 L432,1057 L380,1006 L376,1012 L324,1022 L367,1018 L352,999 L319,1035 L302,1039 L251,1015 L322,985 L308,961 L284,1052 L326,1043 L375,1035 L331,1038 L347,1056 L380,1020 L382,1017 L337,988 L368,945 L379,892 L361,974 L362,1010 L366,993 L376,947 L361,974 L358,1014 L347,986 L403,937 L349,945 L348,1025 L293,1000 L364,970 L348,944 L329,1032 L359,1007 L363,991 L374,945 L358,972 L355,1012 L345,984 L401,935 L369,943 L355,1012 L345,985 L400,936 L373,940 L371,1020 L318,995 L389,966 L373,940 L353,1028 L358,1008 L361,992 L372,946 L360,969 L370,1019 L317,996 L388,966 L372,940 L370,1020 L335,988 L365,944 L376,892 L375,966 L336,988 L366,945 L377,892 L376,966 L336,988 L367,945 L377,892 L374,978 L376,1013 L380,997 L390,951 L375,978 L383,1017 L328,993 L400,963 L384,937 L380,1012 L379,997 L382,981 L392,935 L378,962 L412,991 L338,984 L410,956 L393,929 L350,1023 L373,1011 L330,997 L358,971 L357,964 L352,1024 L374,1012 L331,998 L358,971 L358,965 L351,1026 L342,1021 L344,1005 L353,957 L316,985 L353,1024 L338,1012 L383,1011 L366,990 L329,1024 L370,1006 L373,1006 L373,1006 L373,1006 L373,1006 L399,997 L399,997 L399,997 L399,997 L399,997 L399,997 L420,994 L341,986 L414,958 L396,931 L395,1006 L420,994 L388,982 L388,982 L388,982 L362,984 L277,1024 L289,1029 L329,1055 L261,1071 L279,1099 L348,1001 L321,1004 L299,1016 L331,1027 L290,1017 L308,1038 L346,1002 L346,1002 L326,1005 L358,1017 L318,1007 L365,1056 L404,1026 L381,976 L348,1000 L377,1020 L407,1042 L347,1072 L342,1114 L404,1047 L411,968 L364,999 L359,1023 L413,1057 L356,1071 L306,1108 L337,1103 L380,1007 L356,1010 L386,1006 L463,1007 L461,1010 L411,1048 L450,1018 L443,983 L435,995 L358,995 L366,952 L401,937 L396,1017 L377,1006 L338,990 L353,960 L353,954 L378,1005 L345,989 L299,959 L348,922 L368,948 L370,999 L405,1007 L437,1019 L428,1062 L394,1077 L373,993 L391,988 L357,981 L316,954 L331,924 L331,918 L360,963 L333,955 L322,937 L361,913 L366,935 L397,979 L397,980 L397,980 L397,980 L397,980 L387,989 L353,998 L421,1030 L477,1043 L456,1041 L434,1021 L436,1011 L463,1007 L365,973 L406,950 L429,966 L424,1017 L396,994 L360,955 L384,954 L422,1028 L419,1018 L384,1002 L404,976 L404,969 L387,1021 L422,1012 L332,983 L376,963 L385,977 L388,1018 L436,1007 L400,967 L424,967 L428,1038 L471,1022 L400,966 L396,931 L421,994 L459,1030 L422,969 L418,929 L442,991 L445,1011 L387,952 L382,912 L407,975 L444,1011 L353,982 L398,962 L417,977 L412,1029 L412,1030 L412,1029 L412,1029 L412,1030 L412,1030 L412,1030 L412,1030 L412,1030 L412,1030 L401,1029 L410,1019 L423,1016 L368,1002 L393,1009 L401,1029 L409,1021 L434,1011 L379,998 L404,1005 L412,1025 L400,1017 L407,1017 L409,1021 L409,1021 L409,1022 L389,1021 L410,1018 L375,1002 L394,976 L394,970 L389,1021 L410,1018 L375,1002 L394,976 L394,970 L410,1019 L444,1012 L353,983 L398,964 L406,977 L409,996 L351,937 L340,898 L402,965 L412,1000 L350,934 L395,908 L432,968 L434,983 L350,934 L395,908 L418,971 L469,999 L365,977 L410,957 L441,957 L388,963 L342,913 L363,884 L343,911 L344,917 L363,884 L343,911 L344,917 L340,898 L398,957 L409,996 L373,957 L398,957 L401,1029 L410,1018 L375,1002 L394,975 L394,969 L401,1022 L421,1019 L386,1003 L406,976 L406,970 L398,1011 L429,1003 L394,987 L414,960 L414,954 L450,1019 L431,1023 L407,1031 L508,1055 L464,1076 L443,1061 L456,1013 L435,1025 L425,1030 L470,1042 L451,1068 L451,1075 L433,1014 L448,1032 L438,1037 L438,1037 L438,1037 L438,1037 L418,1035 L426,1025 L390,1009 L410,983 L410,976 L426,1026 L444,1012 L353,983 L399,963 L406,977 L431,1016 L409,996 L373,957 L399,957 L424,1037 L433,1026 L398,1010 L418,984 L418,977 L446,1020 L455,1009 L462,1012 L462,1012 L460,1011 L462,1018 L444,1033 L439,1034 L483,1061 L519,1099 L496,1101 L458,1021 L478,1014 L484,1014 L441,993 L461,966 L460,959 L477,1016 L477,1016 L477,1016 L477,1016 L477,1016 L432,1020 L409,1024 L408,1026 L408,1026 L408,1026 L408,1025 L426,1032 L409,1035 L409,1042 L465,1053 L443,1050 L408,1025 L475,1006 L444,976 L365,920 L407,890 L458,954 L475,999 L436,998 L435,998 L446,988 L389,991 L404,1010 L384,1019 L433,1030 L413,1057 L413,1063 L384,1004 L333,1002 L246,990 L258,949 L291,935 L221,1031 L253,1025 L252,1024 L255,1025 L255,1025 L255,1025 L282,1028 L339,1021 L371,1028 L362,1070 L328,1084 L398,987 L398,987 L462,996 L448,995 L455,1009 L422,1017 L402,985 L353,987 L350,995 L348,997 L360,1000 L326,1007 L332,980 L287,933 L267,884" style="stroke-dasharray: 49575.0410978727; stroke-dashoffset: 49575.0410978727;">
    <animate attributeName="stroke-dashoffset" from="49575.0410978727" to="0" dur="2s" fill="freeze" />
  </path>
</svg>