<svg width="720" height="1280" viewBox="0 0 720 1280" xmlns="http://www.w3.org/2000/svg">
  <style>
    .sig-stroke {
      stroke: #1a1a1a;
      stroke-width: 3;
      fill: none;
      stroke-linecap: round;
      stroke-linejoin: round;
    }
  </style>
  <path class="sig-stroke" d="M 178,989 L145,992 L138,985 L144,965 L167,960 L260,938 L303,954 L340,945 L347,987 L300,1016 L248,1020 L241,969 L218,955 L190,924 L184,908 L184,897 L203,936 L201,914 L224,891 L217,899 L228,881 L188,843 L220,827 L234,811 L299,731 L298,724 L296,719 L288,729 L298,784 L285,852 L320,871 L339,897 L358,932 L329,917 L322,903 L315,881 L304,852 L298,834 L281,871 L297,874 L298,872 L306,876 L298,890 L311,877 L319,898 L327,953 L331,1007 L330,1019 L338,1033 L349,1026 L344,1013 L325,993 L319,1012 L315,1015 L296,1010 L273,1005 L270,988 L254,971 L241,964 L237,967 L235,968 L254,983 L280,985 L290,986 L318,984 L332,981 L330,977 L354,973 L351,970 L354,970 L367,969 L374,982 L381,995 L382,991 L397,992 L397,993 L390,980 L399,968 L386,964 L406,972 L414,986 L405,999 L404,1002 L392,1004 L377,979 L369,967 L354,965 L355,965 L355,965 L355,965 L368,970 L367,974 L382,975 L388,974 L388,973 L396,986 L373,972 L352,976 L335,978 L307,947 L287,902 L268,916 L256,913 L250,880 L260,868 L260,867 L252,881 L261,869 L259,884 L258,884 L261,867 L250,861 L259,833 L262,843 L265,826 L265,826 L265,826 L265,826 L265,820 L280,838 L305,820 L306,840 L335,855 L345,843 L350,846 L333,877 L349,860 L339,835 L321,820 L312,808 L305,767 L295,754 L296,754 L296,754 L296,754 L296,754 L296,754 L295,754 L295,754 L295,754 L295,754 L295,754 L295,754 L295,754 L295,754 L295,754 L295,754 L295,754 L295,754 L295,754 L295,754 L295,754 L294,753 L294,753 L295,752 L295,751" style="stroke-dasharray: 2869.947553412941; stroke-dashoffset: 2869.947553412941;">
    <animate attributeName="stroke-dashoffset" from="2869.947553412941" to="0" dur="2.5s" fill="freeze" />
  </path>
</svg>